<mxfile host="app.diagrams.net" agent="Mozilla/5.0 (Windows NT 10.0; Win64; x64) AppleWebKit/537.36 (KHTML, like Gecko) Chrome/131.0.0.0 Safari/537.36" version="25.0.1">
  <diagram name="Страница — 1" id="ZzMZRiwGdVu4ba_7a3Nx">
    <mxGraphModel dx="1400" dy="717" grid="1" gridSize="10" guides="1" tooltips="1" connect="1" arrows="1" fold="1" page="1" pageScale="1" pageWidth="1600" pageHeight="900" math="0" shadow="0">
      <root>
        <mxCell id="0" />
        <mxCell id="1" parent="0" />
        <mxCell id="JH6y1Sibq7J-ikuddUuM-16" style="edgeStyle=orthogonalEdgeStyle;rounded=0;orthogonalLoop=1;jettySize=auto;html=1;entryX=0;entryY=0.5;entryDx=0;entryDy=0;entryPerimeter=0;" edge="1" parent="1" source="JH6y1Sibq7J-ikuddUuM-1" target="JH6y1Sibq7J-ikuddUuM-4">
          <mxGeometry relative="1" as="geometry">
            <mxPoint x="1020" y="500" as="targetPoint" />
            <Array as="points">
              <mxPoint x="1030" y="460" />
              <mxPoint x="1030" y="460" />
            </Array>
          </mxGeometry>
        </mxCell>
        <mxCell id="JH6y1Sibq7J-ikuddUuM-1" value="&lt;font style=&quot;font-size: 30px;&quot;&gt;Розроблення програмного забезпечення&lt;/font&gt;" style="rounded=0;whiteSpace=wrap;html=1;" vertex="1" parent="1">
          <mxGeometry x="760" y="440" width="240" height="120" as="geometry" />
        </mxCell>
        <mxCell id="JH6y1Sibq7J-ikuddUuM-2" value="&lt;font style=&quot;font-size: 20px;&quot;&gt;Технічні завдання&lt;/font&gt;" style="text;html=1;align=center;verticalAlign=middle;resizable=0;points=[];autosize=1;strokeColor=none;fillColor=none;" vertex="1" parent="1">
          <mxGeometry x="490" y="440" width="190" height="40" as="geometry" />
        </mxCell>
        <mxCell id="JH6y1Sibq7J-ikuddUuM-3" value="&lt;font style=&quot;font-size: 20px;&quot;&gt;Вимоги клієнта&lt;/font&gt;" style="text;html=1;align=center;verticalAlign=middle;resizable=0;points=[];autosize=1;strokeColor=none;fillColor=none;" vertex="1" parent="1">
          <mxGeometry x="520" y="520" width="160" height="40" as="geometry" />
        </mxCell>
        <mxCell id="JH6y1Sibq7J-ikuddUuM-4" value="&lt;font style=&quot;font-size: 20px;&quot;&gt;Готове програмне забезпеченння&lt;/font&gt;" style="text;html=1;align=center;verticalAlign=middle;resizable=0;points=[];autosize=1;strokeColor=none;fillColor=none;" vertex="1" parent="1">
          <mxGeometry x="1080" y="440" width="330" height="40" as="geometry" />
        </mxCell>
        <mxCell id="JH6y1Sibq7J-ikuddUuM-5" value="&lt;font style=&quot;font-size: 20px;&quot;&gt;Документація&lt;/font&gt;" style="text;html=1;align=center;verticalAlign=middle;resizable=0;points=[];autosize=1;strokeColor=none;fillColor=none;" vertex="1" parent="1">
          <mxGeometry x="1080" y="520" width="150" height="40" as="geometry" />
        </mxCell>
        <mxCell id="JH6y1Sibq7J-ikuddUuM-6" value="&lt;font style=&quot;font-size: 20px;&quot;&gt;Бюджет&lt;/font&gt;" style="text;html=1;align=center;verticalAlign=middle;resizable=0;points=[];autosize=1;strokeColor=none;fillColor=none;" vertex="1" parent="1">
          <mxGeometry x="720" y="320" width="100" height="40" as="geometry" />
        </mxCell>
        <mxCell id="JH6y1Sibq7J-ikuddUuM-10" style="edgeStyle=orthogonalEdgeStyle;rounded=0;orthogonalLoop=1;jettySize=auto;html=1;entryX=0.5;entryY=0;entryDx=0;entryDy=0;" edge="1" parent="1" source="JH6y1Sibq7J-ikuddUuM-7" target="JH6y1Sibq7J-ikuddUuM-1">
          <mxGeometry relative="1" as="geometry" />
        </mxCell>
        <mxCell id="JH6y1Sibq7J-ikuddUuM-7" value="&lt;font style=&quot;font-size: 20px;&quot;&gt;Графік виконання&lt;/font&gt;" style="text;html=1;align=center;verticalAlign=middle;resizable=0;points=[];autosize=1;strokeColor=none;fillColor=none;" vertex="1" parent="1">
          <mxGeometry x="785" y="270" width="190" height="40" as="geometry" />
        </mxCell>
        <mxCell id="JH6y1Sibq7J-ikuddUuM-8" value="&lt;font style=&quot;font-size: 20px;&quot;&gt;Стандарти розробки&lt;/font&gt;" style="text;html=1;align=center;verticalAlign=middle;resizable=0;points=[];autosize=1;strokeColor=none;fillColor=none;" vertex="1" parent="1">
          <mxGeometry x="880" y="320" width="210" height="40" as="geometry" />
        </mxCell>
        <mxCell id="JH6y1Sibq7J-ikuddUuM-9" style="edgeStyle=orthogonalEdgeStyle;rounded=0;orthogonalLoop=1;jettySize=auto;html=1;entryX=0.04;entryY=-0.013;entryDx=0;entryDy=0;entryPerimeter=0;" edge="1" parent="1" source="JH6y1Sibq7J-ikuddUuM-6" target="JH6y1Sibq7J-ikuddUuM-1">
          <mxGeometry relative="1" as="geometry">
            <mxPoint x="780" y="436" as="targetPoint" />
          </mxGeometry>
        </mxCell>
        <mxCell id="JH6y1Sibq7J-ikuddUuM-11" style="edgeStyle=orthogonalEdgeStyle;rounded=0;orthogonalLoop=1;jettySize=auto;html=1;" edge="1" parent="1" source="JH6y1Sibq7J-ikuddUuM-8">
          <mxGeometry relative="1" as="geometry">
            <mxPoint x="985" y="437" as="targetPoint" />
          </mxGeometry>
        </mxCell>
        <mxCell id="JH6y1Sibq7J-ikuddUuM-14" style="edgeStyle=orthogonalEdgeStyle;rounded=0;orthogonalLoop=1;jettySize=auto;html=1;entryX=-0.003;entryY=0.169;entryDx=0;entryDy=0;entryPerimeter=0;" edge="1" parent="1" source="JH6y1Sibq7J-ikuddUuM-2" target="JH6y1Sibq7J-ikuddUuM-1">
          <mxGeometry relative="1" as="geometry" />
        </mxCell>
        <mxCell id="JH6y1Sibq7J-ikuddUuM-15" style="edgeStyle=orthogonalEdgeStyle;rounded=0;orthogonalLoop=1;jettySize=auto;html=1;entryX=-0.011;entryY=0.83;entryDx=0;entryDy=0;entryPerimeter=0;" edge="1" parent="1" source="JH6y1Sibq7J-ikuddUuM-3" target="JH6y1Sibq7J-ikuddUuM-1">
          <mxGeometry relative="1" as="geometry" />
        </mxCell>
        <mxCell id="JH6y1Sibq7J-ikuddUuM-17" style="edgeStyle=orthogonalEdgeStyle;rounded=0;orthogonalLoop=1;jettySize=auto;html=1;entryX=-0.019;entryY=0.458;entryDx=0;entryDy=0;entryPerimeter=0;" edge="1" parent="1" source="JH6y1Sibq7J-ikuddUuM-1" target="JH6y1Sibq7J-ikuddUuM-5">
          <mxGeometry relative="1" as="geometry">
            <Array as="points">
              <mxPoint x="1030" y="538" />
              <mxPoint x="1030" y="538" />
            </Array>
          </mxGeometry>
        </mxCell>
        <mxCell id="JH6y1Sibq7J-ikuddUuM-18" value="&lt;font style=&quot;font-size: 20px;&quot;&gt;Команда розробників&lt;/font&gt;" style="text;html=1;align=center;verticalAlign=middle;resizable=0;points=[];autosize=1;strokeColor=none;fillColor=none;" vertex="1" parent="1">
          <mxGeometry x="670" y="680" width="220" height="40" as="geometry" />
        </mxCell>
        <mxCell id="JH6y1Sibq7J-ikuddUuM-19" value="&lt;font style=&quot;font-size: 20px;&quot;&gt;Програмні забезпечення&lt;/font&gt;" style="text;html=1;align=center;verticalAlign=middle;resizable=0;points=[];autosize=1;strokeColor=none;fillColor=none;" vertex="1" parent="1">
          <mxGeometry x="850" y="640" width="250" height="40" as="geometry" />
        </mxCell>
        <mxCell id="JH6y1Sibq7J-ikuddUuM-20" style="edgeStyle=orthogonalEdgeStyle;rounded=0;orthogonalLoop=1;jettySize=auto;html=1;entryX=0.08;entryY=0.99;entryDx=0;entryDy=0;entryPerimeter=0;" edge="1" parent="1" source="JH6y1Sibq7J-ikuddUuM-18" target="JH6y1Sibq7J-ikuddUuM-1">
          <mxGeometry relative="1" as="geometry" />
        </mxCell>
        <mxCell id="JH6y1Sibq7J-ikuddUuM-21" style="edgeStyle=orthogonalEdgeStyle;rounded=0;orthogonalLoop=1;jettySize=auto;html=1;" edge="1" parent="1" source="JH6y1Sibq7J-ikuddUuM-19">
          <mxGeometry relative="1" as="geometry">
            <mxPoint x="976" y="563" as="targetPoint" />
            <Array as="points">
              <mxPoint x="976" y="610" />
              <mxPoint x="976" y="610" />
            </Array>
          </mxGeometry>
        </mxCell>
      </root>
    </mxGraphModel>
  </diagram>
</mxfile>
